<svg width="655" height="408" viewBox="0 0 655 408" fill="none" xmlns="http://www.w3.org/2000/svg">
<path d="M487.816 276.828C482.461 276.828 478.12 280.884 478.12 285.887C478.12 290.89 482.461 294.946 487.816 294.946C493.17 294.946 497.511 290.89 497.511 285.887C497.511 280.884 493.17 276.828 487.816 276.828Z" fill="#9147FF"/>
<path d="M519.898 157.519C512.282 157.519 506.108 163.288 506.108 170.404C506.108 177.52 512.282 183.289 519.898 183.289C527.514 183.289 533.688 177.52 533.688 170.404C533.688 163.288 527.514 157.519 519.898 157.519Z" fill="#9147FF"/>
<path d="M158.677 193.254C154.269 193.254 150.696 196.593 150.696 200.712C150.696 204.83 154.269 208.169 158.677 208.169C163.085 208.169 166.659 204.83 166.659 200.712C166.659 196.593 163.085 193.254 158.677 193.254Z" fill="#9147FF"/>
<path d="M226.956 354.325C221.936 354.325 217.866 350.522 217.866 345.832C217.866 341.141 221.936 337.339 226.956 337.339C231.976 337.339 236.046 341.141 236.046 345.832C236.046 350.522 231.976 354.325 226.956 354.325Z" fill="#9147FF"/>
<path d="M268.373 233.048C266.03 233.048 264.13 231.273 264.13 229.084C264.13 226.895 266.03 225.12 268.373 225.12C270.715 225.12 272.615 226.895 272.615 229.084C272.615 231.273 270.715 233.048 268.373 233.048Z" fill="#116BF1"/>
<path d="M439.188 353.926C436.176 353.926 433.734 351.644 433.734 348.83C433.734 346.015 436.176 343.734 439.188 343.734C442.2 343.734 444.642 346.015 444.642 348.83C444.642 351.644 442.2 353.926 439.188 353.926Z" fill="#E3E4EB"/>
<path d="M142.498 276.272C138.148 276.272 134.621 272.977 134.621 268.912C134.621 264.847 138.148 261.552 142.498 261.552C146.849 261.552 150.376 264.847 150.376 268.912C150.376 272.977 146.849 276.272 142.498 276.272Z" fill="#E3E4EB"/>
<path d="M533.963 274.424C530.651 274.424 527.967 271.916 527.967 268.822C527.967 265.729 530.651 263.221 533.963 263.221C537.274 263.221 539.958 265.729 539.958 268.822C539.958 271.916 537.274 274.424 533.963 274.424Z" fill="#E3E4EB"/>
<path d="M494.407 115.225C490.725 115.225 487.741 112.436 487.741 108.997C487.741 105.557 490.725 102.768 494.407 102.768C498.088 102.768 501.072 105.557 501.072 108.997C501.072 112.436 498.088 115.225 494.407 115.225Z" fill="#E3E4EB"/>
<path d="M128.83 161.941C129.685 164.925 127.79 167.992 124.597 168.791C121.404 169.59 118.121 167.82 117.266 164.836C116.41 161.852 118.305 158.786 121.499 157.986C124.692 157.187 127.974 158.957 128.83 161.941Z" fill="#E3E4EB"/>
<path d="M221.081 90.682C216.683 90.682 213.117 87.3508 213.117 83.2415C213.117 79.1322 216.683 75.8009 221.081 75.8009C225.479 75.8009 229.044 79.1322 229.044 83.2415C229.044 87.3508 225.479 90.682 221.081 90.682Z" fill="#E3E4EB"/>
<path d="M442.39 62.2676C442.39 66.9646 438.315 70.7723 433.288 70.7723C428.261 70.7723 424.185 66.9646 424.185 62.2676C424.185 57.5705 428.261 53.7628 433.288 53.7628C438.315 53.7628 442.39 57.5705 442.39 62.2676Z" fill="#E3E4EB"/>
<path d="M156.758 123.066H156.846C157.362 129.906 162.808 130.011 162.808 130.011C162.808 130.011 156.803 130.121 156.803 138.025C156.803 130.121 150.799 130.011 150.799 130.011C150.799 130.011 156.242 129.906 156.758 123.066ZM163.012 306.344H163.096C163.591 313.164 168.819 313.27 168.819 313.27C168.819 313.27 163.055 313.379 163.055 321.259C163.055 313.379 157.29 313.27 157.29 313.27C157.29 313.27 162.516 313.164 163.012 306.344V306.344Z" fill="#E3E4EB"/>
<path fill-rule="evenodd" clip-rule="evenodd" d="M445.73 235.84V295.015C445.73 300.465 444.145 305.813 441.143 310.487C438.142 315.161 433.838 318.985 428.69 321.55L346.629 362.488C341.969 364.809 336.769 366.023 331.488 366.023C326.207 366.023 321.007 364.809 316.347 362.488L234.286 321.55C229.139 318.985 224.834 315.161 221.833 310.487C218.832 305.813 217.246 300.465 217.247 295.015V235.84" fill="white"/>
<path d="M445.73 235.84V295.015C445.73 300.465 444.145 305.813 441.143 310.487C438.142 315.161 433.838 318.985 428.69 321.55L346.629 362.488C341.969 364.809 336.769 366.023 331.488 366.023C326.207 366.023 321.007 364.809 316.347 362.488L234.286 321.55C229.139 318.985 224.834 315.161 221.833 310.487C218.832 305.813 217.246 300.465 217.247 295.015V235.84" stroke="#E3E4EB" stroke-width="4"/>
<path fill-rule="evenodd" clip-rule="evenodd" d="M285.438 98.7605L479.44 192.318C482.048 193.575 484.238 195.475 485.774 197.812C487.309 200.149 488.131 202.834 488.151 205.576C488.171 208.318 487.388 211.013 485.887 213.369C484.385 215.725 482.223 217.653 479.633 218.943L407.227 255.025C402.632 257.315 397.512 258.529 392.304 258.563C387.097 258.597 381.959 257.45 377.33 255.22L183.378 161.633C180.77 160.375 178.58 158.475 177.044 156.138C175.509 153.802 174.687 151.117 174.667 148.375C174.647 145.633 175.43 142.938 176.931 140.582C178.432 138.226 180.595 136.298 183.184 135.008L255.591 98.9258C260.182 96.648 265.295 95.4432 270.493 95.4145C275.691 95.3857 280.819 96.5338 285.438 98.7605V98.7605Z" fill="white" stroke="#E3E4EB" stroke-width="4"/>
<path d="M394.161 231.234C390.778 231.234 388.036 229.184 388.036 226.656C388.036 224.127 390.778 222.077 394.161 222.077C397.545 222.077 400.287 224.127 400.287 226.656C400.287 229.184 397.545 231.234 394.161 231.234Z" fill="#E3E4EB"/>
<path d="M377.379 98.7605L183.378 192.318C180.77 193.575 178.579 195.475 177.044 197.812C175.508 200.149 174.686 202.834 174.666 205.576C174.646 208.318 175.429 211.013 176.931 213.369C178.432 215.725 180.594 217.653 183.184 218.943L255.591 255.025C260.185 257.315 265.306 258.529 270.513 258.563C275.72 258.597 280.859 257.45 285.487 255.22L479.44 161.633C482.048 160.375 484.238 158.475 485.773 156.138C487.308 153.802 488.13 151.117 488.15 148.375C488.17 145.633 487.387 142.938 485.886 140.582C484.385 138.226 482.223 136.298 479.633 135.008L407.227 98.9258C402.636 96.648 397.523 95.4432 392.325 95.4145C387.127 95.3857 381.999 96.5338 377.379 98.7605V98.7605Z" stroke="#E3E4EB" stroke-width="4"/>
<path d="M331.41 366.022V233.031" stroke="#E3E4EB" stroke-width="4"/>
<path d="M478.472 328.451H464.715M175.598 320.647H190.336H175.598ZM158.892 313.302H190.336H158.892ZM176.58 328.451H190.336H176.58ZM479.455 320.647H464.715H479.455ZM496.16 313.302H464.716H496.16Z" stroke="#E3E4EB" stroke-width="4.046" stroke-linecap="round" stroke-linejoin="round"/>
<path fill-rule="evenodd" clip-rule="evenodd" d="M255.973 130.492V94.8138C255.973 88.9161 257.629 83.1217 260.775 78.0088C263.921 72.896 268.448 68.6435 273.902 65.6757L309.987 46.0543C315.498 43.0585 321.761 41.4803 328.137 41.4803C334.513 41.4803 340.776 43.0585 346.287 46.0543L382.372 65.6764C387.828 68.6425 392.357 72.8943 395.504 78.0073C398.652 83.1202 400.309 88.9153 400.309 94.8138V130.492C400.309 136.39 398.653 142.184 395.507 147.297C392.36 152.409 387.834 156.662 382.38 159.629L346.295 179.252C340.783 182.248 334.521 183.826 328.145 183.826C321.769 183.826 315.506 182.248 309.995 179.252L273.91 159.629C268.453 156.663 263.925 152.411 260.778 147.299C257.63 142.186 255.973 136.39 255.973 130.492V130.492Z" fill="#9147FF"/>
<path d="M328.133 138.876C327.87 138.876 327.61 138.924 327.367 139.018C327.124 139.112 326.903 139.25 326.718 139.424C326.532 139.599 326.385 139.805 326.285 140.032C326.186 140.26 326.135 140.503 326.136 140.749C326.153 141.235 326.372 141.696 326.746 142.034C327.12 142.372 327.62 142.561 328.141 142.561C328.661 142.561 329.162 142.372 329.536 142.034C329.91 141.696 330.128 141.235 330.146 140.749C330.145 140.503 330.093 140.259 329.991 140.031C329.89 139.804 329.742 139.597 329.555 139.423C329.368 139.249 329.146 139.111 328.902 139.017C328.658 138.924 328.397 138.876 328.133 138.876M328.141 112.653V78.9377V112.653Z" stroke="white" stroke-width="15.588" stroke-linecap="round" stroke-linejoin="round"/>
</svg>
